# xmcd CD database file
#
# Track frame offsets:
#	150
#	17719
#	35203
#	50542
#	71427
#	93163
#	108449
#	128857
#	146023
#	162686
#	177648
#	193886
#	211208
#	226969
#
# Disc length: 3240 seconds
#
# Revision: 1
# Processed by: cddbd v1.4PL0 Copyright (c) Steve Scherf et al.
# Submitted via: CDex 1.40Release
#
DISCID=d10ca60e
DTITLE=Descontrole - Descontrole
DYEAR=2002
DGENRE=Dance Hall
TTITLE0=Airplay-The Music is Moving
TTITLE1=Lazo-Something
TTITLE2=Malina-By Your Side
TTITLE3=Mr Sugar-Higher And Higher
TTITLE4=Diana Fox-Running On Empty
TTITLE5=Girlz?! Feat Duchi Davoy-This is My Life
TTITLE6=The Century-21st Century
TTITLE7=T-Zone-Crying at The Discoteque
TTITLE8=Da Klubb Kings-Don't Stop
TTITLE9=Future Groove Express-Thru Tha Roof
TTITLE10=Discover-Out On My Own
TTITLE11=Force-Secrets
TTITLE12=Punk City-Mission
TTITLE13=Mario Lopes-The Sun Always Shines On TV
EXTD=YEAR: 2002 ID3G: 125
EXTT0=
EXTT1=
EXTT2=
EXTT3=
EXTT4=
EXTT5=
EXTT6=
EXTT7=
EXTT8=
EXTT9=
EXTT10=
EXTT11=
EXTT12=
EXTT13=
PLAYORDER=
